<svg width="183" height="20" viewBox="0 0 183 20" fill="none" xmlns="http://www.w3.org/2000/svg">
<path d="M166.948 0.208762L4.3114 14.3313C4.3114 14.3313 0.340334 15.0682 0.508294 16.7368C0.732244 18.9616 4.75934 18.781 4.75934 18.781C4.75934 18.781 169.237 19.5848 169.118 19.5424C169 19.5 173.401 19.7209 176.5 18.5C179.995 17.1232 183.284 14.1028 182.951 9.61006C182.281 0.568247 173.622 -0.46302 166.948 0.208762Z" fill="#58585E"/>
<path d="M177.476 6.56546C179.247 9.36601 178.413 13.0722 175.612 14.8436C172.812 16.6149 169.105 15.7805 167.334 12.9799C165.563 10.1794 166.397 6.47315 169.198 4.70184C171.998 2.93053 175.705 3.7649 177.476 6.56546Z" fill="#D3DDE7"/>
</svg>
